<svg width="32" height="32" viewBox="0 0 32 32" fill="none" xmlns="http://www.w3.org/2000/svg">
<g clip-path="url(#clip0_3112_1532)">
<path d="M32 0H0V32H32V0Z" fill="#FFCE2E"/>
<path d="M25.4437 17.273C25.365 16.5543 24.8575 15.9578 24.1599 15.7761C24.1567 15.7754 24.1541 15.7748 24.1509 15.7735C23.8719 15.7012 23.7829 15.3492 23.9999 15.1597C24.1861 14.9972 24.3448 14.8052 24.4645 14.5895C25.0603 13.5181 24.7173 12.2036 23.6664 11.5309C23.1391 11.1937 22.5714 10.9383 21.9819 10.7687C21.7752 10.7092 21.669 10.4884 21.7471 10.2874C21.7765 10.2119 21.8008 10.1345 21.8187 10.0538C22.0267 9.13989 21.4885 8.22789 20.5925 7.97765C20.2053 7.86949 19.8008 7.81445 19.3906 7.81445C18.0875 7.81445 16.8632 8.34949 16.0331 9.28197C16.0229 9.29349 16.0139 9.30629 16.0037 9.31845C15.9935 9.30693 15.9851 9.29413 15.9749 9.28261C15.1442 8.35013 13.9199 7.81509 12.6168 7.81509C12.2059 7.81509 11.8015 7.87013 11.4155 7.97829C10.9618 8.10501 10.5727 8.41797 10.3474 8.83781C10.1259 9.25061 10.0805 9.73957 10.2226 10.1793C10.236 10.2215 10.2514 10.2625 10.2674 10.3028C10.3461 10.4961 10.2277 10.7117 10.0267 10.7693C9.43601 10.9389 8.86834 11.1943 8.34098 11.5316C7.2901 12.2042 6.94705 13.5194 7.54289 14.5901C7.66257 14.8052 7.82065 14.9972 8.00689 15.1597C8.22449 15.3498 8.13617 15.7018 7.85713 15.7741C7.85329 15.7748 7.85009 15.7761 7.84625 15.7767C7.11665 15.9674 6.59121 16.6311 6.55089 17.3716C6.42225 18.3527 6.46002 19.1796 6.66866 19.9681C6.92594 20.9421 7.44497 21.8356 8.16881 22.5517C9.21713 23.5892 10.6904 24.1837 12.2098 24.1837C12.6661 24.1837 13.1205 24.13 13.5595 24.0244C14.3608 23.8311 15.1231 23.4567 15.7899 22.9415C15.916 22.8442 16.0933 22.8442 16.2194 22.9415C16.8863 23.4567 17.6485 23.8311 18.4498 24.0244C18.8888 24.13 19.3426 24.1837 19.7995 24.1837C21.3189 24.1837 22.7915 23.5885 23.8405 22.5517C24.5643 21.8356 25.0834 20.9421 25.3407 19.9681C25.621 18.9057 25.5371 17.9277 25.445 17.2737L25.4437 17.273Z" fill="#F7F7F7"/>
<path d="M25.5135 17.2641C25.4303 16.5076 24.9055 15.8958 24.1669 15.7038C24.0607 15.6763 23.982 15.5963 23.957 15.49C23.9327 15.387 23.966 15.2846 24.046 15.2148C24.2425 15.0433 24.4037 14.8449 24.526 14.6254C25.141 13.5201 24.7877 12.1639 23.7036 11.4702C23.1743 11.131 22.6009 10.8718 21.9999 10.6996C21.9212 10.6772 21.8578 10.6247 21.822 10.5518C21.7855 10.4775 21.7823 10.3931 21.813 10.3143C21.8437 10.235 21.8693 10.1531 21.8879 10.0705C22.1049 9.11882 21.5436 8.16907 20.6105 7.90795C20.2175 7.79787 19.806 7.74219 19.3887 7.74219C18.078 7.74219 16.8453 8.27531 16.0018 9.20587C15.1577 8.27531 13.9257 7.74219 12.6149 7.74219C12.1977 7.74219 11.7868 7.79787 11.3938 7.90795C10.9215 8.03979 10.5157 8.36618 10.2815 8.80266C10.0505 9.23274 10.0031 9.74219 10.1516 10.2011C10.1657 10.2452 10.181 10.2875 10.1983 10.3297C10.2265 10.3988 10.2239 10.4756 10.19 10.5441C10.1535 10.619 10.0863 10.6753 10.005 10.699C9.40342 10.8711 8.82934 11.131 8.30006 11.4702C7.21654 12.1639 6.86262 13.5201 7.47766 14.6254C7.5999 14.8449 7.76118 15.0427 7.95766 15.2142C8.03766 15.2839 8.07094 15.3876 8.04662 15.4907C8.02166 15.5963 7.94358 15.6763 7.82646 15.7063C7.07446 15.9028 6.51958 16.5857 6.47734 17.362C6.34742 18.3527 6.38581 19.1867 6.59637 19.986C6.85685 20.9723 7.3823 21.8772 8.11574 22.6023C9.1775 23.6532 10.6693 24.2555 12.2079 24.2555C12.67 24.2555 13.1295 24.2011 13.5743 24.0942C14.3717 23.9015 15.1525 23.5227 15.8316 22.9985C15.9321 22.9211 16.0716 22.9211 16.1721 22.9985C16.8511 23.5227 17.6313 23.9022 18.4293 24.0942C18.8741 24.2011 19.3337 24.2555 19.7964 24.2555C21.3343 24.2555 22.8261 23.6532 23.8879 22.6023C24.6213 21.8772 25.1468 20.9723 25.4073 19.9854C25.6933 18.9019 25.605 17.9131 25.5135 17.2635V17.2641ZM25.2671 19.9489C25.013 20.9108 24.501 21.7927 23.7861 22.4993C22.7513 23.5233 21.2965 24.1102 19.7964 24.1102C19.3458 24.1102 18.8972 24.0571 18.4639 23.9527C17.6857 23.7652 16.9234 23.3953 16.261 22.8833C16.1849 22.8244 16.0933 22.795 16.0018 22.795C15.9103 22.795 15.8194 22.8244 15.7426 22.8833C15.0796 23.3953 14.318 23.7652 13.5397 23.9527C13.1058 24.0571 12.6578 24.1102 12.2073 24.1102C10.7065 24.1102 9.25238 23.5227 8.2175 22.4993C7.50262 21.7921 6.99062 20.9102 6.73654 19.9489C6.53046 19.1687 6.49334 18.3527 6.62134 17.3755C6.66038 16.6561 7.1711 16.0276 7.87318 15.8446C8.02998 15.8036 8.1503 15.6814 8.18742 15.5246C8.22454 15.3684 8.17397 15.2116 8.05237 15.1054C7.86869 14.9454 7.7183 14.7598 7.60374 14.555C7.02646 13.5175 7.35926 12.2446 8.3775 11.5924C8.89526 11.2609 9.45653 11.0075 10.0447 10.8385C10.1657 10.8039 10.2661 10.7195 10.3205 10.6075C10.3724 10.5012 10.3769 10.3828 10.3327 10.2747C10.3167 10.2363 10.3026 10.1966 10.2892 10.1563C10.1529 9.73515 10.1964 9.26666 10.4089 8.87114C10.6245 8.46922 10.9977 8.16906 11.4329 8.04746C11.813 7.94122 12.2105 7.88746 12.6149 7.88746C13.8975 7.88746 15.1013 8.41354 15.9186 9.33066L15.9461 9.36459C15.9596 9.38123 15.9801 9.39082 16.0018 9.39082C16.0229 9.39082 16.0434 9.38123 16.0575 9.36523L16.0722 9.34666C16.0767 9.34154 16.0805 9.33578 16.0857 9.33066C16.9029 8.41354 18.1068 7.88746 19.3893 7.88746C19.7938 7.88746 20.1913 7.94123 20.5721 8.04811C21.4309 8.28811 21.9468 9.16234 21.7471 10.0385C21.7298 10.114 21.7068 10.1889 21.678 10.2612C21.6325 10.3771 21.6377 10.5063 21.6921 10.6158C21.7465 10.7252 21.8412 10.8046 21.9602 10.8385C22.5477 11.0068 23.1084 11.2609 23.6261 11.5918C24.6444 12.2433 24.9772 13.5169 24.3999 14.5543C24.286 14.7591 24.1349 14.9447 23.9506 15.1047C23.8297 15.2103 23.7791 15.3665 23.8162 15.5227C23.8533 15.6795 23.9737 15.8023 24.1401 15.8459C24.8114 16.0212 25.294 16.5838 25.3701 17.2807C25.3701 17.2814 25.3701 17.282 25.3701 17.2827C25.4597 17.9195 25.5468 18.8891 25.2671 19.9483V19.9489Z" fill="black"/>
<path d="M11.9555 9.9364C12.0163 9.91912 12.0777 9.90376 12.1391 9.89096C12.1743 9.88392 12.2102 9.87688 12.2454 9.87112C12.2518 9.86984 12.2755 9.86664 12.2889 9.86472C12.4099 9.85064 12.5315 9.84424 12.6537 9.84616C12.7126 9.8468 12.7708 9.85 12.8297 9.85448C12.8611 9.85704 12.8924 9.8596 12.9244 9.86344C12.9327 9.86408 12.9539 9.86728 12.9654 9.8692C13.087 9.8884 13.2067 9.91336 13.3251 9.94728C13.3859 9.96456 13.446 9.98376 13.5049 10.0049C13.5305 10.0138 13.5555 10.0234 13.5811 10.033C13.5958 10.0388 13.6099 10.0446 13.624 10.0503C13.734 10.099 13.8416 10.154 13.9452 10.2161C13.9984 10.2481 14.0508 10.282 14.1014 10.3178C14.1071 10.3223 14.143 10.3479 14.1564 10.3575C14.1635 10.3633 14.2051 10.3966 14.2115 10.4017C14.3062 10.481 14.3945 10.5674 14.4764 10.6596C14.5775 10.7735 14.7849 10.7703 14.8867 10.6596C14.998 10.538 14.9948 10.3703 14.8867 10.2494C14.136 9.40648 12.879 9.0756 11.8006 9.37704C11.6547 9.418 11.5497 9.5844 11.5977 9.73416C11.6457 9.88328 11.798 9.98056 11.9548 9.93704L11.9555 9.9364Z" fill="#231F20"/>
<path d="M17.5214 10.6596C17.6033 10.5674 17.6917 10.481 17.7864 10.4017C17.8024 10.3882 17.819 10.3748 17.8357 10.362C17.8414 10.3582 17.8901 10.3223 17.8965 10.3178C17.9477 10.282 17.9995 10.2481 18.0526 10.2161C18.1525 10.1559 18.2561 10.1041 18.3617 10.0554C18.3669 10.0529 18.3707 10.0516 18.3739 10.0503C18.388 10.0446 18.4021 10.0388 18.4168 10.033C18.4417 10.0234 18.4673 10.0138 18.4929 10.0049C18.5525 9.98376 18.6126 9.96456 18.6728 9.94728C18.7905 9.914 18.9096 9.89288 19.0299 9.8692C19.0357 9.86856 19.0395 9.86792 19.0414 9.86728C19.0523 9.866 19.0632 9.86472 19.0734 9.86344C19.1003 9.86024 19.1272 9.85768 19.1547 9.85576C19.2181 9.85064 19.2808 9.84744 19.3441 9.8468C19.4651 9.84488 19.5848 9.85256 19.7045 9.86536C19.7166 9.86728 19.7493 9.87112 19.7525 9.87176C19.7883 9.87752 19.8235 9.88392 19.8587 9.8916C19.9208 9.9044 19.9816 9.91976 20.0424 9.93704C20.1883 9.978 20.3649 9.88648 20.3995 9.73416C20.4347 9.58056 20.3534 9.4212 20.1966 9.37704C19.1182 9.0756 17.8613 9.40648 17.1105 10.2494C17.0094 10.3626 16.9902 10.5495 17.1105 10.6596C17.2206 10.7607 17.4133 10.7806 17.5208 10.6596H17.5214Z" fill="#231F20"/>
<path d="M23.9987 17.4458C23.9904 17.3249 23.9155 17.2135 23.7901 17.1809C23.0829 16.9966 22.3392 16.9364 21.6115 16.9006C20.7994 16.8602 19.984 16.8641 19.1719 16.9102C18.7866 16.9319 18.4013 16.9633 18.0179 17.0138C17.8682 17.0337 17.7203 17.1329 17.728 17.3038C17.7287 17.323 17.7325 17.3428 17.7376 17.3626C17.7811 17.7447 17.9661 18.85 18.1171 19.0964C18.3559 19.4868 18.8071 19.6577 19.1943 19.5617C19.5815 19.4663 19.8643 19.3134 20.0474 18.9057C20.2023 18.5614 20.0839 17.931 20.0378 17.4593C20.0909 17.4586 20.1434 17.4567 20.1965 17.4561C20.8858 17.4478 21.577 17.4663 22.2643 17.5278C22.2675 17.5463 22.2707 17.5649 22.2739 17.5834C22.2874 17.6622 22.3002 17.7409 22.313 17.8196C22.3149 17.833 22.3175 17.8465 22.3194 17.8593C22.3488 18.1838 22.3539 18.5006 22.3239 18.8244C22.3104 18.8922 22.3053 18.9236 22.3047 18.9326C22.2925 18.9953 22.2791 19.058 22.2637 19.1207C22.224 19.2788 22.1735 19.4343 22.112 19.5854C22.1114 19.5873 22.1107 19.5879 22.1101 19.5898C22.0787 19.6545 22.0455 19.7185 22.0103 19.7812C21.9354 19.915 21.8503 20.0423 21.7575 20.1658C21.7127 20.2158 21.6679 20.2663 21.6205 20.3143C21.5181 20.4186 21.408 20.5134 21.2941 20.6055C21.2384 20.642 21.1834 20.6791 21.1258 20.713C21.0029 20.7866 20.8743 20.85 20.7437 20.9102C20.6823 20.9313 20.6215 20.953 20.5587 20.9716C20.4192 21.0132 20.2778 21.0426 20.1344 21.0689C20.073 21.074 20.0115 21.0791 19.9501 21.0817C19.801 21.0874 19.6538 21.0804 19.5053 21.0702C19.4419 21.0593 19.3792 21.0484 19.3165 21.035C19.1661 21.0023 19.0189 20.9588 18.8749 20.9063C18.8071 20.8762 18.7399 20.8449 18.6746 20.811C18.5331 20.738 18.4007 20.6542 18.2695 20.5665C18.2541 20.5543 18.2387 20.5428 18.2234 20.5306C18.1658 20.4846 18.1095 20.4366 18.0551 20.3873C17.9251 20.2695 17.8035 20.1441 17.6896 20.0122C17.593 19.8676 17.6179 19.9182 17.6538 19.9681C17.6467 19.9598 17.6403 19.9508 17.6339 19.9425C17.584 19.8759 17.536 19.8087 17.4899 19.7402C17.4381 19.6628 17.3875 19.5847 17.3402 19.5041C17.3171 19.4657 17.2954 19.4266 17.2749 19.387C17.2698 19.3774 17.2653 19.3678 17.2608 19.3582C17.2282 19.193 17.1379 19.0241 17.0963 18.859C17.0707 18.7585 17.049 18.6574 17.0298 18.5556C17.0215 18.5114 17.0144 18.4679 17.0074 18.4238C17.0048 18.4014 17.0016 18.3783 16.9991 18.3559C16.953 17.9399 16.9459 17.5188 16.9786 17.1015C16.985 17.0209 16.9939 16.9409 17.0029 16.8609C17.0106 16.8225 17.0151 16.7822 17.0221 16.745C17.0669 16.5082 17.1315 16.2753 17.2115 16.0474C17.2487 15.9418 17.2909 15.8375 17.3325 15.7338C17.3517 15.6942 17.3703 15.6538 17.3901 15.6142C17.4989 15.3946 17.6224 15.1822 17.7613 14.9786C17.7927 14.9326 17.8247 14.8871 17.8573 14.8423C17.8899 14.7982 18.0563 14.6113 17.8887 14.7937C17.9603 14.7156 18.0263 14.6324 18.1005 14.5556C18.1831 14.4698 18.2695 14.3879 18.3603 14.3111C18.3955 14.281 18.4327 14.2529 18.4691 14.2234C18.4723 14.2209 18.4749 14.2196 18.4787 14.217C18.6471 14.1012 18.8237 13.9975 19.0087 13.9073C19.0522 13.8855 19.0963 13.865 19.1411 13.8452C19.1546 13.8394 19.1655 13.8343 19.1744 13.8298C19.2813 13.7921 19.3875 13.755 19.497 13.7249C19.5962 13.6974 19.6967 13.6737 19.7978 13.6545C19.8387 13.6468 19.8803 13.6404 19.9213 13.6334C19.9424 13.6314 19.9629 13.6289 19.984 13.6276C20.1101 13.618 20.2362 13.6142 20.3629 13.6174C20.4179 13.6186 20.4736 13.6212 20.5287 13.6257C20.5511 13.6276 20.5741 13.6295 20.5965 13.6314C20.7008 13.659 20.8147 13.6686 20.9197 13.6948C21.0579 13.7287 21.1911 13.7742 21.3255 13.819C21.3306 13.8209 21.3338 13.8215 21.3376 13.8228C21.3421 13.8254 21.3459 13.8266 21.3517 13.8298C21.4304 13.8676 21.5098 13.9022 21.5879 13.9418C21.7312 14.0148 21.8682 14.0967 22.0032 14.1831C22.3815 14.4257 22.9843 14.2638 23.1943 13.8868C23.4266 13.4695 23.2858 13.0145 22.8819 12.7559C21.8573 12.0999 20.6541 11.8426 19.4381 12.043C18.4883 12.1991 17.5431 12.6996 16.8883 13.3697C16.5344 13.7319 16.2407 14.1345 16.0013 14.5626C15.7619 14.1345 15.4688 13.7326 15.1143 13.3697C14.4595 12.6996 13.5136 12.1991 12.5645 12.043C11.3485 11.8426 10.1453 12.1006 9.12066 12.7559C8.71682 13.0145 8.57602 13.4695 8.80834 13.8868C9.01826 14.2644 9.62114 14.4257 9.99938 14.1831C10.1338 14.0967 10.2714 14.0154 10.4147 13.9418C10.4922 13.9022 10.5722 13.867 10.6509 13.8298C10.6567 13.8273 10.6605 13.8254 10.665 13.8228C10.6695 13.8215 10.6727 13.8202 10.6771 13.819C10.8115 13.7742 10.9447 13.7287 11.0829 13.6948C11.1885 13.6686 11.3018 13.6596 11.4061 13.6314C11.4285 13.6295 11.4515 13.627 11.4739 13.6257C11.529 13.6218 11.5847 13.6193 11.6397 13.6174C11.7658 13.6142 11.8925 13.6174 12.0186 13.6276C12.0397 13.6295 12.0602 13.6314 12.0813 13.6334C12.1223 13.6404 12.1639 13.6468 12.2048 13.6545C12.3059 13.6743 12.4064 13.6974 12.5056 13.7249C12.6151 13.755 12.7213 13.7921 12.8282 13.8298C12.8378 13.8343 12.8487 13.8388 12.8615 13.8452C12.9063 13.865 12.9504 13.8862 12.9939 13.9073C13.1783 13.9975 13.3555 14.1018 13.5239 14.217C13.5277 14.2196 13.5303 14.2215 13.5335 14.2234C13.5693 14.2529 13.6064 14.281 13.6423 14.3111C13.7338 14.3879 13.8202 14.4698 13.9021 14.5556C13.9763 14.6324 14.0423 14.715 14.1139 14.7937C13.9463 14.6113 14.1127 14.7975 14.1453 14.8423C14.1779 14.8871 14.2099 14.9326 14.2413 14.9786C14.3802 15.1822 14.5031 15.3953 14.6125 15.6142C14.6323 15.6538 14.6503 15.6942 14.6701 15.7338C14.7117 15.8382 14.7539 15.9418 14.7911 16.0474C14.8711 16.2753 14.9357 16.5089 14.9805 16.745C14.9875 16.7822 14.992 16.8225 14.9997 16.8609C15.0087 16.9409 15.0176 17.0209 15.024 17.1015C15.056 17.5188 15.0496 17.9399 15.0035 18.3559C15.001 18.3783 14.9984 18.4014 14.9952 18.4238C14.9882 18.4679 14.9811 18.5114 14.9728 18.5556C14.9536 18.6574 14.9319 18.7585 14.9063 18.859C14.8647 19.0241 14.7744 19.193 14.7418 19.3582C14.7373 19.3678 14.7322 19.3774 14.7277 19.387C14.7072 19.4266 14.6848 19.4657 14.6624 19.5041C14.6151 19.5841 14.5645 19.6628 14.5127 19.7402C14.4666 19.8087 14.4186 19.8759 14.3687 19.9425C14.3623 19.9508 14.3559 19.9598 14.3488 19.9681C14.3847 19.9175 14.4096 19.867 14.313 20.0122C14.1991 20.1441 14.0775 20.2702 13.9475 20.3873C13.8931 20.4366 13.8368 20.4846 13.7792 20.5306C13.7639 20.5428 13.7485 20.555 13.7331 20.5665C13.6019 20.6548 13.4695 20.738 13.328 20.811C13.2621 20.8449 13.1955 20.8769 13.1277 20.9063C12.9837 20.9588 12.8359 21.0023 12.6861 21.035C12.6234 21.0484 12.56 21.0593 12.4973 21.0702C12.3488 21.0804 12.2016 21.0874 12.0525 21.0817C11.9911 21.0791 11.9296 21.074 11.8682 21.0689C11.7248 21.0426 11.5834 21.0132 11.4439 20.9716C11.3818 20.953 11.3203 20.9313 11.2589 20.9102C11.1283 20.85 10.9997 20.7873 10.8768 20.713C10.8199 20.6785 10.7642 20.642 10.7085 20.6055C10.5946 20.5134 10.4845 20.4186 10.3821 20.3143C10.3347 20.2663 10.2906 20.2158 10.2451 20.1658C10.153 20.0423 10.0679 19.915 9.99234 19.7812C9.95714 19.7185 9.92386 19.6545 9.8925 19.5898C9.89186 19.5879 9.89122 19.5873 9.89058 19.5854C9.82914 19.4337 9.77858 19.2782 9.7389 19.1207C9.7229 19.0586 9.7101 18.9959 9.69794 18.9326C9.69794 18.9236 9.69282 18.8922 9.67874 18.8244C9.64866 18.5006 9.65378 18.1831 9.68322 17.8593C9.68514 17.8458 9.68706 17.8324 9.68962 17.8196C9.70242 17.7409 9.71522 17.6622 9.72866 17.5834C9.73186 17.5642 9.73506 17.5457 9.73826 17.5265C9.96418 17.5066 10.1901 17.4906 10.4167 17.4798C10.9319 17.4548 11.4483 17.4497 11.9642 17.4593C11.9175 17.9303 11.7997 18.5614 11.9546 18.9057C12.1376 19.3134 12.4205 19.4657 12.8077 19.5617C13.1949 19.6577 13.6455 19.4862 13.8848 19.0964C14.0333 18.8538 14.2157 17.778 14.2624 17.3806C14.2701 17.355 14.2752 17.3294 14.2739 17.3044C14.2663 17.1303 14.1459 17.0356 13.984 17.0145C13.2538 16.9178 12.5152 16.8846 11.7792 16.8762C10.9735 16.8673 10.1645 16.8916 9.36386 16.9831C8.9773 17.0273 8.58946 17.0836 8.2125 17.1815C8.08386 17.2154 7.9885 17.3505 7.99874 17.483C7.89954 18.1927 7.88226 18.8878 8.06978 19.5975C8.25922 20.3143 8.64834 20.987 9.18722 21.5201C10.2151 22.537 11.7799 22.9601 13.2173 22.6138C14.3661 22.3367 15.3703 21.5687 16.0019 20.601C16.6336 21.5687 17.6378 22.3367 18.7866 22.6138C20.224 22.9607 21.7882 22.537 22.8167 21.5201C23.3555 20.987 23.7453 20.3137 23.9341 19.5975C24.1248 18.875 24.1043 18.1684 24.0007 17.4458H23.9987Z" fill="#231F20"/>
</g>
<defs>
<clipPath id="clip0_3112_1532">
<rect width="32" height="32" rx="16" fill="white"/>
</clipPath>
</defs>
</svg>
